<svg id="Layer_1" data-name="Layer 1" xmlns="http://www.w3.org/2000/svg" viewBox="0 0 115.5 120.1"><defs><style>.cls-1{fill:#231f20;}</style></defs><title>dodge</title><path class="cls-1" d="M65.2,123.3V128h6.4c3.6,0,4.9-1.4,4.9-3.4s-.6-3.3-4.8-3.3H60.8v-2.7H72.2c7.2,0,8.8,3.1,8.8,6s-2.4,6.1-8.9,6.1H60.8v-7.4h4.4" transform="translate(-12.9 -10.8)"/><path class="cls-1" d="M17.2,123.3V128h6.5c3.5,0,4.9-1.4,4.9-3.4s-.7-3.3-4.9-3.3H12.9v-2.7H24.2c7.2,0,8.9,3.1,8.9,6s-2.4,6.1-8.9,6.1H12.9v-7.4h4.3" transform="translate(-12.9 -10.8)"/><path class="cls-1" d="M94,123.3V126h6.4v2H94c-3.6,0-5-1.4-5-3.4s1.8-3.3,4.7-3.3h11v-2.7H93.6c-5.8,0-9.1,1.8-9.1,6s3.2,6.1,8.9,6.1h11.3v-7.4H94" transform="translate(-12.9 -10.8)"/><polyline class="cls-1" points="101.6 110.5 115.3 110.5 115.3 107.9 96.9 107.9 96.9 119.9 115.5 119.9 115.5 117.3 101.6 117.3 101.6 115.2 114.6 115.2 114.6 112.6 101.6 112.6 101.6 110.5"/><path class="cls-1" d="M52.6,124.7c0-2.1-2-3.6-5.8-3.6s-5.8,1.5-5.8,3.6,1.8,3.5,5.8,3.5,5.8-1.6,5.8-3.5m-5.8,6.2c-7.4,0-10.3-2.5-10.3-6.2s2.9-6.3,10.3-6.3,10.3,2.5,10.3,6.3S54.2,130.9,46.8,130.9Z" transform="translate(-12.9 -10.8)"/><path class="cls-1" d="M106.9,12.2c-5.9-.6-21.6-1.4-36.3-1.4s-30.5.8-36.4,1.4-9.9,4.1-9.9,10.9c0,12.7.5,32.5,1.3,44.1S27,85.8,39.9,93.7c9.3,5.6,18.5,10.4,30.4,16.6h.5c12-6.2,21.2-11,30.4-16.6,12.9-7.9,13.5-16.1,14.3-26.5s1.3-31.5,1.3-44.1C116.8,16.3,113.7,12.9,106.9,12.2ZM111.4,67c-.8,10.2-1.2,16.4-12.2,23-9,5.5-17.1,9.7-28.6,15.7C59,99.7,50.9,95.5,42,90,31,83.4,30.5,77.2,29.8,67s-1.4-31.7-1.4-44.6c0-4.3,1.3-5.7,5.6-6.1,6-.6,21.7-1.5,36.6-1.5s30.5.9,36.5,1.5c4.4.4,5.6,1.8,5.6,6.1C112.7,35.3,112.2,55.3,111.4,67Z" transform="translate(-12.9 -10.8)"/><path class="cls-1" d="M50.2,29.5c7.3,0,13.3,5.4,18.4,15.7L70,40.5c-2.9-5.9-8.4-13.6-18.2-13.6a15.6,15.6,0,0,0-14.5,9.5A15.5,15.5,0,0,1,50.2,29.5Z" transform="translate(-12.9 -10.8)"/><path class="cls-1" d="M50.4,67.8c0,3-2,3.9-3.6,3.9-5,0-9.9-9.6-11.3-20.6H33.4c.1,17.2,5.1,25.4,12.5,25.4,3.5,0,6-2.2,6-5.7A12.7,12.7,0,0,0,50,64.4,17.6,17.6,0,0,1,50.4,67.8Z" transform="translate(-12.9 -10.8)"/><path class="cls-1" d="M90.9,29.5a15.3,15.3,0,0,1,12.9,6.9,15.5,15.5,0,0,0-14.5-9.5c-9.7,0-15.2,7.7-18.1,13.6l1.4,4.7C77.6,34.9,83.7,29.5,90.9,29.5Z" transform="translate(-12.9 -10.8)"/><path class="cls-1" d="M94.4,71.7c-1.7,0-3.7-.9-3.7-3.9a17.6,17.6,0,0,1,.4-3.4,14,14,0,0,0-1.8,6.4c0,3.5,2.4,5.7,5.9,5.7,7.5,0,12.5-8.2,12.5-25.4h-2C104.3,62.1,99.3,71.7,94.4,71.7Z" transform="translate(-12.9 -10.8)"/><path class="cls-1" d="M89.5,50.5c.7-1.6,1.8-3.1,3.2-3.1s2.9,1.7,2.9,4.4c0,5.9-2.1,9.1-2.1,12.2,0,1.3.5,2,1.5,2,3.4,0,7.8-7.3,9.4-16h1.9c.4-6.2-2.9-13.7-10.7-13.7S83,41.4,79.2,53.1l2.4,1.7-1.1,5.8L76,62.4l-.8,5.7,2.2-2.7,2.3-1L79,68.1l-4.1,1.7-1.4,9.8,1,3.1-3.9,1.6-3.9-1.6.9-3.1-1.4-9.8-4-1.7-.8-3.7,2.4,1L66,68.1l-.9-5.7-4.5-1.8-1.1-5.8,2.4-1.7C58.2,41.4,52,36.3,45.6,36.3S34.4,43.8,34.9,50h1.9c1.5,8.7,6,16,9.3,16,1,0,1.6-.7,1.6-2,0-3.1-2.1-6.3-2.1-12.2,0-2.7.8-4.4,2.9-4.4s2.5,1.5,3.2,3.1c-1.3,4.4-1.1,8.1,2.4,9.6l3.8,1.7s2.3,9.4,2.4,10.1l.8,2,3.4,5.7s.9,5,1.2,6c.5,2.9,2.6,2.9,4.9,2.9s4.3,0,4.9-2.9l1.2-6L80,73.9a7,7,0,0,0,.8-2c.2-.7,2.4-10.1,2.4-10.1L87,60.1C90.5,58.6,90.7,54.9,89.5,50.5Zm-34,7.9c-2.5-1-2.7-4-1.9-7.9l2.7,4.3,1,4.4Zm30.2,0-1.9.8,1-4.4,2.8-4.3C88.4,54.4,88.1,57.4,85.7,58.4Z" transform="translate(-12.9 -10.8)"/></svg>