<svg id="Layer_1" data-name="Layer 1" xmlns="http://www.w3.org/2000/svg" viewBox="0 0 115.45 120.13"><defs><style>.cls-1{fill:#fff;}</style></defs><title>logo_white</title><path class="cls-1" d="M65.21,123.33V128h6.43c3.55,0,4.89-1.41,4.89-3.39,0-1.29-.63-3.37-4.85-3.37H60.84v-2.66H72.16c7.2,0,8.88,3.06,8.88,6,0,3.58-2.42,6-8.89,6H60.84v-7.37h4.37" transform="translate(-12.87 -10.76)"/><path class="cls-1" d="M17.24,123.33V128h6.43c3.55,0,4.89-1.41,4.89-3.39,0-1.29-.63-3.37-4.85-3.37H12.87v-2.66H24.19c7.2,0,8.87,3.06,8.87,6,0,3.58-2.41,6-8.89,6H12.87v-7.37h4.37" transform="translate(-12.87 -10.76)"/><path class="cls-1" d="M94,123.31V126h6.39V128H94c-3.62,0-5-1.41-5-3.39,0-2.19,1.83-3.37,4.73-3.37h11v-2.66H93.58c-5.73,0-9.06,1.81-9.06,6s3.21,6,8.88,6h11.31v-7.39H94" transform="translate(-12.87 -10.76)"/><polyline class="cls-1" points="101.55 110.51 115.31 110.51 115.31 107.86 96.91 107.86 96.91 119.94 115.45 119.94 115.45 117.28 101.55 117.28 101.55 115.22 114.58 115.22 114.58 112.57 101.55 112.57 101.55 110.51"/><path class="cls-1" d="M52.59,124.66c0-2.07-2-3.58-5.79-3.58S41,122.59,41,124.66s1.78,3.58,5.78,3.58,5.79-1.61,5.79-3.58m-5.79,6.23c-7.44,0-10.28-2.45-10.28-6.23s2.93-6.22,10.28-6.22,10.29,2.45,10.29,6.22S54.17,130.89,46.8,130.89Z" transform="translate(-12.87 -10.76)"/><path class="cls-1" d="M106.92,12.24c-5.93-.6-21.59-1.48-36.36-1.48s-30.42.88-36.35,1.48c-6.77.67-9.92,4.11-9.92,10.81,0,12.74.47,32.56,1.34,44.2C26.4,77.63,27,85.82,39.93,93.68c9.25,5.61,18.44,10.42,30.41,16.61l.22.11.21-.11c12-6.2,21.21-11,30.42-16.61,12.92-7.86,13.53-16.05,14.31-26.43.86-11.7,1.34-31.5,1.34-44.2C116.84,16.35,113.69,12.91,106.92,12.24ZM111.36,67c-.76,10.2-1.21,16.36-12.18,23-9,5.49-17.07,9.7-28.61,15.69C59,99.71,50.9,95.48,42,90,31,83.38,30.52,77.22,29.76,67c-.86-11.74-1.35-31.76-1.35-44.64,0-4.27,1.26-5.64,5.64-6.07,5.94-.6,21.67-1.49,36.52-1.49s30.58.89,36.52,1.49c4.37.43,5.64,1.8,5.64,6.07C112.73,35.26,112.24,55.28,111.36,67Z" transform="translate(-12.87 -10.76)"/><path class="cls-1" d="M50.21,29.49c7.28,0,13.3,5.41,18.34,15.73l1.4-4.7c-2.88-6-8.39-13.64-18.14-13.64a15.49,15.49,0,0,0-14.47,9.54A15.17,15.17,0,0,1,50.21,29.49Z" transform="translate(-12.87 -10.76)"/><path class="cls-1" d="M50.4,67.81c0,3-2,3.92-3.62,3.92-5,0-9.93-9.65-11.33-20.64h-2c.06,17.18,5.06,25.43,12.52,25.43,3.45,0,5.93-2.17,5.93-5.7A13.23,13.23,0,0,0,50,64.44,16,16,0,0,1,50.4,67.81Z" transform="translate(-12.87 -10.76)"/><path class="cls-1" d="M90.94,29.49a15.22,15.22,0,0,1,12.87,6.93,15.5,15.5,0,0,0-14.47-9.54c-9.75,0-15.25,7.69-18.14,13.64l1.4,4.7C77.64,34.9,83.66,29.49,90.94,29.49Z" transform="translate(-12.87 -10.76)"/><path class="cls-1" d="M94.37,71.73c-1.64,0-3.63-1-3.63-3.92a17.45,17.45,0,0,1,.37-3.37,13.26,13.26,0,0,0-1.83,6.38c0,3.53,2.47,5.7,5.93,5.7,7.45,0,12.46-8.25,12.52-25.43h-2C104.3,62.08,99.33,71.73,94.37,71.73Z" transform="translate(-12.87 -10.76)"/><path class="cls-1" d="M89.47,50.49c.69-1.59,1.82-3.05,3.2-3.05,2,0,2.91,1.69,2.91,4.41,0,5.86-2.09,9.08-2.09,12.17,0,1.26.53,2,1.55,2,3.34,0,7.77-7.38,9.35-16.08h1.9c.42-6.17-2.85-13.64-10.72-13.64-6.38,0-12.61,5.07-16.32,16.8l2.4,1.67-1.16,5.77L76,62.44l-.82,5.67,2.19-2.69,2.36-1L79,68.1l-4.06,1.68-1.42,9.8,1,3.13-3.93,1.55-3.92-1.55,1-3.13-1.42-9.8L62.16,68.1l-.74-3.66,2.35,1L66,68.11l-.83-5.67-4.5-1.87L59.49,54.8l2.42-1.67c-3.72-11.73-10-16.8-16.33-16.8-7.87,0-11.14,7.47-10.72,13.64h1.9c1.58,8.7,6,16.08,9.34,16.08,1,0,1.56-.77,1.56-2,0-3.09-2.1-6.31-2.1-12.17,0-2.72.87-4.41,2.92-4.41,1.38,0,2.51,1.46,3.18,3.05-1.23,4.4-1,8.06,2.46,9.62l3.82,1.7L60.32,71.9a9.67,9.67,0,0,0,.81,2l3.33,5.7s1,5,1.21,6c.56,2.86,2.61,2.86,4.9,2.86s4.35,0,4.91-2.86l1.2-6L80,73.88a9.12,9.12,0,0,0,.8-2L83.2,61.81,87,60.11C90.53,58.55,90.72,54.89,89.47,50.49Zm-34,7.93c-2.49-1.06-2.74-4-1.91-7.91l2.71,4.28,1,4.42Zm30.15,0-1.82.79,1-4.42,2.73-4.28C88.39,54.43,88.13,57.36,85.65,58.42Z" transform="translate(-12.87 -10.76)"/></svg>